<svg width="20" height="20" viewBox="0 0 20 20" fill="none" xmlns="http://www.w3.org/2000/svg">
<path d="M12.5 17.5V10.8333C12.5 10.6123 12.4122 10.4004 12.2559 10.2441C12.0996 10.0878 11.8877 10 11.6667 10H8.33333C8.11232 10 7.90036 10.0878 7.74408 10.2441C7.5878 10.4004 7.5 10.6123 7.5 10.8333V17.5" stroke="black" stroke-opacity="0.6" stroke-width="1.66667" stroke-linecap="round" stroke-linejoin="round"/>
<path d="M2.5 8.33371C2.49994 8.09127 2.55278 7.85173 2.65482 7.63181C2.75687 7.41189 2.90566 7.21688 3.09083 7.06038L8.92417 2.06121C9.22499 1.80697 9.60613 1.66748 10 1.66748C10.3939 1.66748 10.775 1.80697 11.0758 2.06121L16.9092 7.06038C17.0943 7.21688 17.2431 7.41189 17.3452 7.63181C17.4472 7.85173 17.5001 8.09127 17.5 8.33371V15.8337C17.5 16.2757 17.3244 16.6997 17.0118 17.0122C16.6993 17.3248 16.2754 17.5004 15.8333 17.5004H4.16667C3.72464 17.5004 3.30072 17.3248 2.98816 17.0122C2.67559 16.6997 2.5 16.2757 2.5 15.8337V8.33371Z" stroke="black" stroke-opacity="0.6" stroke-width="1.66667" stroke-linecap="round" stroke-linejoin="round"/>
</svg>
