<svg width="25" height="25" viewBox="0 0 25 25" fill="none" xmlns="http://www.w3.org/2000/svg">
<rect width="25" height="25" rx="8" fill="#E58601"/>
<path d="M11.7917 19.3919C12.007 19.5163 12.2513 19.5817 12.5 19.5817C12.7487 19.5817 12.993 19.5163 13.2083 19.3919L18.1667 16.5586C18.3818 16.4344 18.5605 16.2558 18.6848 16.0407C18.8092 15.8256 18.8747 15.5816 18.875 15.3332V9.66652C18.8747 9.41809 18.8092 9.17409 18.6848 8.95901C18.5605 8.74392 18.3818 8.56531 18.1667 8.4411L13.2083 5.60777C12.993 5.48343 12.7487 5.41797 12.5 5.41797C12.2513 5.41797 12.007 5.48343 11.7917 5.60777L6.83333 8.4411C6.61819 8.56531 6.43949 8.74392 6.31516 8.95901C6.19083 9.17409 6.12525 9.41809 6.125 9.66652V15.3332C6.12525 15.5816 6.19083 15.8256 6.31516 16.0407C6.43949 16.2558 6.61819 16.4344 6.83333 16.5586L11.7917 19.3919Z" stroke="white" stroke-width="1.41667" stroke-linecap="round" stroke-linejoin="round"/>
<path d="M12.5005 19.5833V12.5" stroke="white" stroke-width="1.41667" stroke-linecap="round" stroke-linejoin="round"/>
<path d="M6.33008 8.95801L12.4997 12.4997L18.6692 8.95801" stroke="white" stroke-width="1.41667" stroke-linecap="round" stroke-linejoin="round"/>
<path d="M9.31494 7.02441L15.6899 10.6723" stroke="white" stroke-width="1.41667" stroke-linecap="round" stroke-linejoin="round"/>
</svg>
