<svg width="20" height="20" viewBox="0 0 20 20" fill="none" xmlns="http://www.w3.org/2000/svg">
<g clip-path="url(#clip0_2307_38)">
<path d="M15 16.6665C15 15.3404 14.4732 14.0687 13.5355 13.131C12.5979 12.1933 11.3261 11.6665 10 11.6665C8.67392 11.6665 7.40215 12.1933 6.46447 13.131C5.52678 14.0687 5 15.3404 5 16.6665" stroke="black" stroke-opacity="0.6" stroke-width="1.66667" stroke-linecap="round" stroke-linejoin="round"/>
<path d="M9.99984 11.6667C11.8408 11.6667 13.3332 10.1743 13.3332 8.33333C13.3332 6.49238 11.8408 5 9.99984 5C8.15889 5 6.6665 6.49238 6.6665 8.33333C6.6665 10.1743 8.15889 11.6667 9.99984 11.6667Z" stroke="black" stroke-opacity="0.6" stroke-width="1.66667" stroke-linecap="round" stroke-linejoin="round"/>
<path d="M9.99984 18.3332C14.6022 18.3332 18.3332 14.6022 18.3332 9.99984C18.3332 5.39746 14.6022 1.6665 9.99984 1.6665C5.39746 1.6665 1.6665 5.39746 1.6665 9.99984C1.6665 14.6022 5.39746 18.3332 9.99984 18.3332Z" stroke="black" stroke-opacity="0.6" stroke-width="1.66667" stroke-linecap="round" stroke-linejoin="round"/>
</g>
<defs>
<clipPath id="clip0_2307_38">
<rect width="20" height="20" fill="white"/>
</clipPath>
</defs>
</svg>
